<?xml version="1.0" encoding="UTF-8" standalone="no"?>
<!-- Created with Inkscape (http://www.inkscape.org/) -->

<svg
   version="1.1"
   id="svg1"
   width="1024"
   height="1024"
   viewBox="0 0 1024 1024"
   sodipodi:docname="nazwabeztla.svg"
   inkscape:version="1.4.2 (f4327f4, 2025-05-13)"
   xmlns:inkscape="http://www.inkscape.org/namespaces/inkscape"
   xmlns:sodipodi="http://sodipodi.sourceforge.net/DTD/sodipodi-0.dtd"
   xmlns:xlink="http://www.w3.org/1999/xlink"
   xmlns="http://www.w3.org/2000/svg"
   xmlns:svg="http://www.w3.org/2000/svg">
  <defs
     id="defs1">
    <linearGradient
       id="linearGradient17"
       inkscape:collect="always">
      <stop
         style="stop-color:#b7ffa7;stop-opacity:1;"
         offset="0"
         id="stop17" />
      <stop
         style="stop-color:#2c75ff;stop-opacity:0;"
         offset="1"
         id="stop18" />
    </linearGradient>
    <linearGradient
       inkscape:collect="always"
       xlink:href="#linearGradient17"
       id="linearGradient18"
       x1="139.73318"
       y1="435.75125"
       x2="1360.3304"
       y2="431.94455"
       gradientUnits="userSpaceOnUse"
       gradientTransform="translate(-6.3444857,53.29368)" />
  </defs>
  <sodipodi:namedview
     id="namedview1"
     pagecolor="#ffffff"
     bordercolor="#000000"
     borderopacity="0.25"
     inkscape:showpageshadow="2"
     inkscape:pageopacity="0.0"
     inkscape:pagecheckerboard="0"
     inkscape:deskcolor="#d1d1d1"
     inkscape:zoom="0.78808594"
     inkscape:cx="612.87732"
     inkscape:cy="553.8736"
     inkscape:window-width="1920"
     inkscape:window-height="1009"
     inkscape:window-x="-8"
     inkscape:window-y="-8"
     inkscape:window-maximized="1"
     inkscape:current-layer="g1" />
  <g
     inkscape:groupmode="layer"
     inkscape:label="Image"
     id="g1">
    <path
       style="fill:url(#linearGradient18)"
       d="m 452.81103,604.9528 c -17.1464,-3.67426 -29.58473,-16.62088 -34.52456,-35.93543 -1.8388,-7.18967 -1.97544,-11.20581 -1.97544,-58.06396 v -50.34003 h 15.9885 15.98851 l -0.10164,48.61965 -0.10164,48.61966 3.36313,6.54902 c 5.68318,11.06684 14.83837,15.82012 28.86314,14.98546 14.99702,-0.89252 23.37327,-8.02069 28.14758,-23.95355 2.08243,-6.94951 2.21431,-9.56128 2.60409,-51.57024 l 0.41056,-44.25 h 15.91889 15.91888 v 71.4511 71.4511 l -15.50144,0.2989 -15.50144,0.2989 0.001,-9.25 c 7.9e-4,-5.0875 -0.29091,-9.25 -0.64822,-9.25 -0.35731,0 -2.75036,2.19099 -5.31789,4.86887 -11.03512,11.50941 -23.07996,16.21286 -41.01235,16.01513 -5.78606,-0.0638 -11.4201,-0.30886 -12.5201,-0.54458 z m 256,-0.81928 c -13.85573,-3.05023 -23.53414,-8.43091 -34.09358,-18.95424 -8.71898,-8.68915 -13.81125,-17.38125 -17.02828,-29.0659 -2.41123,-8.75786 -3.00296,-33.83191 -1.02016,-43.2281 1.91721,-9.08535 7.92327,-21.90523 14.04915,-29.98778 12.33945,-16.28081 33.87025,-26.72905 57.59287,-27.94807 13.23397,-0.68005 22.50351,1.14881 33.63384,6.63587 21.01596,10.36049 31.68225,33.10139 32.61115,69.52808 l 0.25501,10 -52.25,0.25892 -52.25,0.25892 v 2.28098 c 0,4.01629 2.98324,13.89974 5.70494,18.90039 3.49957,6.42986 11.02737,13.329 18.07699,16.56736 7.57426,3.47936 20.53049,4.28683 28.15414,1.75466 6.29757,-2.09172 15.90476,-10.62425 18.53846,-16.46476 1.00607,-2.23106 2.32338,-4.05341 2.92734,-4.04966 2.16416,0.0134 25.67245,4.73417 26.19943,5.26116 0.29602,0.29602 -0.45475,2.49432 -1.66838,4.88512 -8.81556,17.3662 -22.62025,28.40519 -41.04547,32.8222 -9.89687,2.37254 -28.86235,2.64173 -38.38745,0.54485 z m 51.04989,-90.85465 c -1.21872,-9.18895 -4.44214,-15.73268 -10.96238,-22.25423 -7.83855,-7.84013 -13.26659,-9.83637 -25.06284,-9.21722 -10.13263,0.53182 -17.35366,3.72703 -23.50529,10.40076 -5.25409,5.70001 -8.08125,11.99601 -8.76305,19.515 l -0.52925,5.83663 15.38646,0.27679 c 8.46255,0.15223 24.09195,0.27678 34.732,0.27678 h 19.34554 z m -589.80841,89.61743 -2.7585,-0.41741 0.2585,-54.68276 0.25851,-54.68275 16.75,-0.27418 16.75,-0.27418 v 54.88489 54.88489 l -5.25,0.63059 c -5.57904,0.67013 -21.4011,0.62809 -26.00851,-0.0691 z m 398.50185,-70.50812 0.25667,-71.2748 13.5,-0.25012 c 7.425,-0.13756 14.14731,0.16641 14.93846,0.6755 1.0177,0.65485 1.56512,3.57483 1.87148,9.98246 l 0.43301,9.05685 2.72091,-3.73235 c 3.80724,-5.22251 11.09084,-11.70944 15.90525,-14.16557 5.96933,-3.04532 15.57242,-5.03519 24.38089,-5.05199 l 7.75,-0.0148 v 15.5 15.5 h -11.96249 c -18.83816,0 -27.01891,4.12506 -33.24237,16.76216 l -3.29514,6.69096 -0.5,45.52344 -0.5,45.52344 -16.25667,0.2748 -16.25667,0.2748 z m 251.00667,70.51882 -3.25,-0.42034 v -97.93664 -97.93664 h 15.93261 c 15.02045,0 15.96873,0.11377 16.56336,1.98731 0.50849,1.60211 -0.32991,193.22645 -0.84717,193.62829 -0.53485,0.4155 -25.77018,1.018 -28.3988,0.67802 z m -562.25,-98.39423 v -98.10061 l 45.25,0.47762 c 50.51319,0.53317 53.69524,0.88345 66.44745,7.31453 12.61252,6.36063 22.22208,18.47226 26.94548,33.96135 2.84654,9.33444 2.58902,30.5493 -0.49098,40.44772 -6.72053,21.59826 -19.99525,33.79325 -43.65195,40.10144 -6.90688,1.84176 -11.66277,2.20266 -34.80608,2.64126 l -26.80607,0.508 0.12005,9.12465 c 0.066,5.01856 0.0913,20.93715 0.0561,35.37465 l -0.064,26.25 h -16.5 -16.5 z m 81.22326,-3.35418 c 8.41634,-1.78957 15.12079,-5.66128 18.96838,-10.95394 5.39693,-7.42389 6.18515,-10.21033 6.24913,-22.09127 0.0547,-10.15708 -0.16128,-11.44909 -2.81842,-16.86059 -3.0478,-6.20709 -8.54215,-11.01362 -15.27947,-13.36667 -5.77134,-2.01568 -23.85167,-3.41499 -39.84288,-3.08359 l -15,0.31085 -0.18562,33.44965 c -0.1021,18.39731 0.0792,33.87824 0.403,34.40207 0.85707,1.38677 39.37682,-0.078 47.50588,-1.80651 z M 172.64601,477.29381 c -2.10925,-2.37576 -12.05355,-13.02114 -22.09845,-23.65639 -17.78051,-18.82549 -18.21682,-19.38888 -16.5,-21.30544 2.64361,-2.95117 15.97561,-13.7186 16.98608,-13.7186 0.48391,0 6.44084,5.625 13.23761,12.5 6.79677,6.875 12.45093,12.5 12.5648,12.5 0.11388,0 13.40408,-15.99177 29.5338,-35.53726 l 29.32675,-35.53726 8.81502,8.77418 c 4.84826,4.8258 9.08273,9.61768 9.40994,10.64861 0.42243,1.33097 -0.69142,3.21935 -3.84169,6.51308 -3.93885,4.11822 -41.12781,47.01424 -63.62473,73.38865 -4.57412,5.3625 -8.68954,9.75 -9.14537,9.75 -0.45583,0 -2.55452,-1.94381 -4.66376,-4.31957 z"
       id="path16" />
  </g>
</svg>
